<?xml version="1.0" encoding="UTF-8"?>
<svg id="Layer_2" xmlns="http://www.w3.org/2000/svg" viewBox="0 0 685.9 701.72">
  <g id="Layer_1-2" data-name="Layer_1">
    <g>
      <rect id="part1" x="231.87" y="209.78" width="100.45" height="100.45" rx="20.9" ry="20.9"/>
      <rect id="part2" x="231.87" y="331.49" width="100.45" height="100.45" rx="20.9" ry="20.9"/>
      <rect id="part3" x="353.58" y="209.78" width="100.45" height="100.45" rx="20.9" ry="20.9"/>
      <rect id="part4" x="353.58" y="331.49" width="100.45" height="100.45" rx="20.9" ry="20.9"/>
    </g>
    <g>
      <path d="M685.48,394.68c-.13-2.92-3.48-4.45-5.79-2.67-9.64,7.44-35.78,21.04-104.43,31.84-120.27,18.92-147.56,96.44-147.56,96.44,0,0-21.42,41.65-13.3,117.83.39,3.65,5.36,4.43,6.83,1.07,15.52-35.31,68.15-133.75,179.79-155.79,0,0-128.44,60.74-176.44,193.63l27.7-2.52s8.89-24.89,18.96-26.07,225.41-3.8,214.22-253.76Z"/>
      <path d="M676.38,319.65L366.24,9.52c-6.35-6.35-14.67-9.52-23-9.52-.1,0-.19,0-.29.01-8.42-.09-16.87,3.09-23.29,9.51L9.52,319.65c-6.35,6.35-9.52,14.67-9.52,23s3.33,17.08,10.01,23.48c12.85,12.33,33.41,11.62,46-.98l18.39-18.39s.09,0,.09.04v327.37c0,15.21,12.34,27.55,27.56,27.55h481.78c15.22,0,27.55-12.34,27.55-27.55v-45.46c0-2.66-2.96-4.24-5.18-2.77l-.07.05c-5.93,3.95-12.82,8.13-20.7,12.26-8.68,4.56-14.05,13.61-14.05,23.41h0s-.02.05-.05.05H114.55s-.05-.02-.05-.05v-390.41s0-.03.02-.04L342.91,42.84s.05-.02.07,0l228.39,228.38s.02.02.02.04v132.98c.25-.05.51-.09.77-.13.15-.02.31-.05.46-.07,22.34-3.52,38.77-22.82,38.77-45.44v-11.81s.06-.07.09-.04l18.9,18.9c6.35,6.35,14.67,9.53,23,9.53s16.64-3.18,23-9.53c12.7-12.7,12.7-33.3,0-46Z"/>
    </g>
  </g>
</svg>